<?xml version="1.0" encoding="UTF-8" standalone="no"?>
<svg width="600" height="400" xmlns="http://www.w3.org/2000/svg">
  <!-- 배경 -->
  <rect width="600" height="400" fill="#fcf2f8" />
  
  <!-- 벚꽃 나무 -->
  <path d="M 150,400 Q 200,300 180,200 Q 160,100 200,50" stroke="#8d6e63" stroke-width="15" fill="none" />
  <path d="M 200,50 Q 220,70 250,60" stroke="#8d6e63" stroke-width="8" fill="none" />
  <path d="M 200,50 Q 190,30 210,20" stroke="#8d6e63" stroke-width="6" fill="none" />
  <path d="M 180,200 Q 200,190 220,210" stroke="#8d6e63" stroke-width="10" fill="none" />
  <path d="M 180,200 Q 150,210 160,240" stroke="#8d6e63" stroke-width="8" fill="none" />
  
  <!-- 벚꽃 -->
  <circle cx="200" cy="50" r="25" fill="#fabfda" />
  <circle cx="250" cy="60" r="20" fill="#fabfda" />
  <circle cx="210" cy="20" r="18" fill="#fabfda" />
  <circle cx="180" cy="30" r="15" fill="#fabfda" />
  <circle cx="220" cy="40" r="22" fill="#fabfda" />
  <circle cx="220" cy="210" r="20" fill="#fabfda" />
  <circle cx="160" cy="240" r="18" fill="#fabfda" />
  <circle cx="190" cy="180" r="22" fill="#fabfda" />
  <circle cx="240" cy="90" r="20" fill="#fabfda" />
  <circle cx="170" cy="150" r="18" fill="#fabfda" />
  
  <!-- 벚꽃 중앙 -->
  <circle cx="200" cy="50" r="8" fill="#fff9c4" />
  <circle cx="250" cy="60" r="7" fill="#fff9c4" />
  <circle cx="210" cy="20" r="6" fill="#fff9c4" />
  <circle cx="180" cy="30" r="5" fill="#fff9c4" />
  <circle cx="220" cy="40" r="7" fill="#fff9c4" />
  <circle cx="220" cy="210" r="7" fill="#fff9c4" />
  <circle cx="160" cy="240" r="6" fill="#fff9c4" />
  <circle cx="190" cy="180" r="7" fill="#fff9c4" />
  <circle cx="240" cy="90" r="7" fill="#fff9c4" />
  <circle cx="170" cy="150" r="6" fill="#fff9c4" />
  
  <!-- 딸기 이미지 -->
  <ellipse cx="450" cy="200" rx="80" ry="100" fill="#e53935" />
  <path d="M 450,100 C 445,110 440,120 450,130" stroke="#4caf50" stroke-width="4" fill="none" />
  <path d="M 450,100 C 455,110 460,120 450,130" stroke="#4caf50" stroke-width="4" fill="none" />
  
  <!-- 딸기 씨앗 -->
  <circle cx="430" cy="150" r="3" fill="#ffeb3b" />
  <circle cx="460" cy="170" r="3" fill="#ffeb3b" />
  <circle cx="420" cy="200" r="3" fill="#ffeb3b" />
  <circle cx="450" cy="220" r="3" fill="#ffeb3b" />
  <circle cx="470" cy="190" r="3" fill="#ffeb3b" />
  <circle cx="440" cy="180" r="3" fill="#ffeb3b" />
  <circle cx="480" cy="210" r="3" fill="#ffeb3b" />
  <circle cx="425" cy="230" r="3" fill="#ffeb3b" />
  <circle cx="455" cy="250" r="3" fill="#ffeb3b" />
  <circle cx="475" cy="240" r="3" fill="#ffeb3b" />
  
  <!-- 수수부꾸미 -->
  <circle cx="300" cy="300" r="70" fill="#f5f5dc" />
  <circle cx="300" cy="300" r="60" fill="#fff0f3" />
  <path d="M 300,260 L 300,340" stroke="#f8bbd0" stroke-width="4" fill="none" />
  <path d="M 260,300 L 340,300" stroke="#f8bbd0" stroke-width="4" fill="none" />
  <circle cx="300" cy="300" r="20" fill="#ffcdd2" />
  
  <!-- 제목 -->
  <text x="300" y="50" font-family="Arial, sans-serif" font-size="24" font-weight="bold" text-anchor="middle" fill="#d81b60">봄 - 딸기 수수부꾸미</text>
</svg>