<?xml version="1.0" encoding="UTF-8" standalone="no"?>
<svg width="600" height="400" xmlns="http://www.w3.org/2000/svg">
  <!-- 배경 -->
  <rect width="600" height="400" fill="#e3f2fd" />
  
  <!-- 물결 효과 -->
  <path d="M 0,330 Q 50,310 100,330 Q 150,350 200,330 Q 250,310 300,330 Q 350,350 400,330 Q 450,310 500,330 Q 550,350 600,330 L 600,400 L 0,400 Z" fill="#90caf9" />
  <path d="M 0,350 Q 50,330 100,350 Q 150,370 200,350 Q 250,330 300,350 Q 350,370 400,350 Q 450,330 500,350 Q 550,370 600,350 L 600,400 L 0,400 Z" fill="#64b5f6" />
  <path d="M 0,370 Q 50,350 100,370 Q 150,390 200,370 Q 250,350 300,370 Q 350,390 400,370 Q 450,350 500,370 Q 550,390 600,370 L 600,400 L 0,400 Z" fill="#42a5f5" />
  
  <!-- 태양 -->
  <circle cx="500" cy="100" r="50" fill="#ffeb3b" />
  <circle cx="500" cy="100" r="40" fill="#fdd835" />
  
  <!-- 계곡 방향 화살표 -->
  <path d="M 500,100 L 460,140" stroke="#ffd54f" stroke-width="5" />
  <path d="M 500,100 L 460,60" stroke="#ffd54f" stroke-width="5" />
  <path d="M 500,100 L 540,60" stroke="#ffd54f" stroke-width="5" />
  <path d="M 500,100 L 540,140" stroke="#ffd54f" stroke-width="5" />
  <path d="M 500,100 L 450,100" stroke="#ffd54f" stroke-width="5" />
  <path d="M 500,100 L 500,50" stroke="#ffd54f" stroke-width="5" />
  <path d="M 500,100 L 550,100" stroke="#ffd54f" stroke-width="5" />
  <path d="M 500,100 L 500,150" stroke="#ffd54f" stroke-width="5" />
  
  <!-- 표고버섯 -->
  <ellipse cx="200" cy="250" rx="70" ry="30" fill="#8d6e63" />
  <rect x="190" y="250" width="20" height="70" fill="#a1887f" />
  
  <!-- 표고버섯 무늬 -->
  <circle cx="180" cy="240" r="5" fill="#d7ccc8" />
  <circle cx="220" cy="245" r="6" fill="#d7ccc8" />
  <circle cx="190" cy="255" r="4" fill="#d7ccc8" />
  <circle cx="210" cy="235" r="5" fill="#d7ccc8" />
  <circle cx="230" cy="250" r="4" fill="#d7ccc8" />
  <circle cx="170" cy="250" r="6" fill="#d7ccc8" />
  
  <!-- 수수부꾸미 -->
  <circle cx="350" cy="200" r="70" fill="#f5f5dc" />
  <circle cx="350" cy="200" r="60" fill="#e1f5fe" />
  <path d="M 350,160 L 350,240" stroke="#81d4fa" stroke-width="4" fill="none" />
  <path d="M 310,200 L 390,200" stroke="#81d4fa" stroke-width="4" fill="none" />
  <circle cx="350" cy="200" r="20" fill="#b3e5fc" />
  
  <!-- 크림치즈 -->
  <ellipse cx="350" cy="200" rx="15" ry="10" fill="#fff3e0" />
  
  <!-- 제목 -->
  <text x="300" y="50" font-family="Arial, sans-serif" font-size="24" font-weight="bold" text-anchor="middle" fill="#1976d2">여름 - 표고버섯 수수부꾸미</text>
</svg>