<?xml version="1.0" encoding="UTF-8" standalone="no"?>
<svg width="600" height="400" xmlns="http://www.w3.org/2000/svg">
  <!-- 배경 -->
  <rect width="600" height="400" fill="#eceff1" />
  
  <!-- 눈 배경 -->
  <rect width="600" height="150" y="250" fill="#e0e0e0" />
  
  <!-- 눈 내리는 효과 -->
  <circle cx="50" cy="50" r="3" fill="white" />
  <circle cx="150" cy="80" r="4" fill="white" />
  <circle cx="250" cy="40" r="3" fill="white" />
  <circle cx="350" cy="90" r="5" fill="white" />
  <circle cx="450" cy="60" r="4" fill="white" />
  <circle cx="550" cy="70" r="3" fill="white" />
  <circle cx="100" cy="120" r="4" fill="white" />
  <circle cx="200" cy="100" r="3" fill="white" />
  <circle cx="300" cy="130" r="5" fill="white" />
  <circle cx="400" cy="110" r="4" fill="white" />
  <circle cx="500" cy="140" r="3" fill="white" />
  <circle cx="75" cy="160" r="4" fill="white" />
  <circle cx="175" cy="180" r="3" fill="white" />
  <circle cx="275" cy="150" r="5" fill="white" />
  <circle cx="375" cy="170" r="4" fill="white" />
  <circle cx="475" cy="190" r="3" fill="white" />
  <circle cx="125" cy="210" r="4" fill="white" />
  <circle cx="225" cy="230" r="3" fill="white" />
  <circle cx="325" cy="200" r="5" fill="white" />
  <circle cx="425" cy="220" r="4" fill="white" />
  <circle cx="525" cy="240" r="3" fill="white" />
  
  <!-- 눈 덮인 언덕 -->
  <ellipse cx="200" cy="300" rx="150" ry="50" fill="white" />
  <ellipse cx="400" cy="320" rx="180" ry="60" fill="white" />
  
  <!-- 한우 실루엣 -->
  <path d="M 450,240 L 470,240 L 480,230 L 490,240 L 510,240 L 510,270 L 490,270 L 480,270 L 470,270 L 450,270 Z" fill="#795548" />
  <path d="M 455,270 L 455,290 L 465,290 L 465,270" fill="#8d6e63" />
  <path d="M 495,270 L 495,290 L 505,290 L 505,270" fill="#8d6e63" />
  <ellipse cx="480" cy="240" rx="30" ry="15" fill="#8d6e63" />
  <ellipse cx="465" cy="235" rx="5" ry="5" fill="black" />
  <ellipse cx="495" cy="235" rx="5" ry="5" fill="black" />
  <path d="M 475,245 Q 480,250 485,245" stroke="black" stroke-width="2" fill="none" />
  
  <!-- 한우 육포 수수부꾸미 -->
  <circle cx="200" cy="200" r="70" fill="#f5f5dc" />
  <circle cx="200" cy="200" r="60" fill="#fffde7" />
  
  <!-- 육포 조각들 -->
  <path d="M 180,180 Q 185,170 190,180" fill="#5d4037" />
  <path d="M 200,170 Q 205,160 210,170" fill="#5d4037" />
  <path d="M 220,190 Q 225,180 230,190" fill="#5d4037" />
  <path d="M 190,210 Q 195,200 200,210" fill="#5d4037" />
  <path d="M 170,200 Q 175,190 180,200" fill="#5d4037" />
  <path d="M 210,220 Q 215,210 220,220" fill="#5d4037" />
  
  <!-- 제목 -->
  <text x="300" y="50" font-family="Arial, sans-serif" font-size="24" font-weight="bold" text-anchor="middle" fill="#546e7a">겨울 - 한우 육포 수수부꾸미</text>
</svg>