<?xml version="1.0" encoding="UTF-8"?>
<svg width="800" height="600" viewBox="0 0 800 600" xmlns="http://www.w3.org/2000/svg">
  <!-- 배경 -->
  <rect width="800" height="600" fill="#f9f9f9"/>
  
  <!-- 제목 영역 -->
  <rect x="150" y="30" width="500" height="60" rx="10" ry="10" fill="white" stroke="#FF4081" stroke-width="2"/>
  <text x="400" y="60" font-family="Arial" font-size="24" font-weight="bold" text-anchor="middle" fill="#FF4081">청년 선호 간식 트렌드</text>
  <text x="400" y="85" font-family="Arial" font-size="16" text-anchor="middle" fill="#666">MZ세대를 사로잡는 양평 스낵 박스 전략</text>
  
  <!-- 스마트폰과 SNS 시각화 -->
  <g transform="translate(400, 250)">
    <!-- 스마트폰 외형 -->
    <rect x="-100" y="-150" width="200" height="320" rx="20" ry="20" fill="#333" stroke="#111" stroke-width="2"/>
    <rect x="-90" y="-140" width="180" height="290" fill="#fff"/>
    
    <!-- 상단 카메라 및 스피커 -->
    <rect x="-20" y="-145" width="40" height="5" rx="2" ry="2" fill="#111"/>
    
    <!-- 홈 버튼 -->
    <circle cx="0" cy="160" r="12" fill="#eee" stroke="#ddd" stroke-width="1"/>
    
    <!-- SNS 화면 콘텐츠 -->
    <g>
      <!-- 프로필 헤더 -->
      <rect x="-85" y="-135" width="170" height="50" fill="#f5f5f5"/>
      <circle cx="-60" cy="-110" r="15" fill="#FF4081"/>
      <text x="-30" y="-115" font-family="Arial" font-size="10" font-weight="bold" fill="#333">양평_청년</text>
      <text x="-30" y="-100" font-family="Arial" font-size="8" fill="#666">@yangpyeong_youth</text>
      <rect x="65" y="-120" width="15" height="15" rx="3" ry="3" fill="#FF4081"/>
      <text x="72" y="-110" font-family="Arial" font-size="12" font-weight="bold" text-anchor="middle" fill="white">+</text>
      
      <!-- 피드 이미지 -->
      <rect x="-85" y="-80" width="170" height="110" fill="#E8F5E9"/>
      <text x="0" y="-30" font-family="Arial" font-size="12" font-weight="bold" text-anchor="middle" fill="#333">양평 계절愛 스낵 박스</text>
      
      <!-- 제품 이미지 스케치 -->
      <g transform="translate(0, -40)">
        <rect x="-30" y="-10" width="60" height="30" rx="5" ry="5" fill="#81C784"/>
        <text x="0" y="5" font-family="Arial" font-size="8" font-weight="bold" text-anchor="middle" fill="white">양평 스낵 박스</text>
      </g>
      
      <!-- 좋아요 및 댓글 아이콘 -->
      <g transform="translate(-60, 45)">
        <path d="M0,0 L-5,-5 L-2,-5 L-2,-10 L2,-10 L2,-5 L5,-5 Z" fill="#FF4081"/>
        <text x="15" y="0" font-family="Arial" font-size="8" fill="#666">1,245</text>
      </g>
      
      <g transform="translate(0, 45)">
        <path d="M-5,-5 C-5,-8 -2,-10 0,-10 C2,-10 5,-8 5,-5 C5,0 0,0 0,5 L-2,3" fill="none" stroke="#666" stroke-width="1"/>
        <text x="15" y="0" font-family="Arial" font-size="8" fill="#666">89</text>
      </g>
      
      <g transform="translate(60, 45)">
        <path d="M-5,0 L0,-5 L5,0 L5,5 L-5,5 Z" fill="none" stroke="#666" stroke-width="1"/>
        <text x="15" y="0" font-family="Arial" font-size="8" fill="#666">37</text>
      </g>
      
      <!-- 댓글 영역 -->
      <rect x="-90" y="65" width="130" height="55" fill="#fafafa"/>
      <text x="-80" y="85" font-family="Arial" font-size="8" font-weight="bold" fill="#333">@양평_맛집투어:</text>
      <text x="-80" y="98" font-family="Arial" font-size="8" fill="#666">이거 완전 인스타 감성! 사진 찍으러 가야지 😍</text>
      
      <text x="-80" y="115" font-family="Arial" font-size="8" font-weight="bold" fill="#333">@푸드_스타그램:</text>
      <text x="-80" y="128" font-family="Arial" font-size="8" fill="#666">패키지가 너무 예뻐요. 선물용 좋을 것 같아요! ✨</text>
    </g>
  </g>
  
  <!-- MZ세대 선호 트렌드 카드들 -->
  <g>
    <!-- 비주얼 중심 디자인 -->
    <g transform="translate(130, 160)">
      <rect x="0" y="0" width="160" height="120" rx="10" ry="10" fill="white" stroke="#FF4081" stroke-width="2"/>
      <rect x="10" y="10" width="140" height="30" rx="5" ry="5" fill="#FF4081" opacity="0.1"/>
      <text x="80" y="30" font-family="Arial" font-size="14" font-weight="bold" text-anchor="middle" fill="#FF4081">비주얼 중심 디자인</text>
      
      <g transform="translate(20, 50)">
        <circle cx="0" cy="10" r="5" fill="#FF4081"/>
        <text x="10" y="13" font-family="Arial" font-size="11" text-anchor="start" fill="#333">인스타그래머블 패키지</text>
        
        <circle cx="0" cy="30" r="5" fill="#FF4081"/>
        <text x="10" y="33" font-family="Arial" font-size="11" text-anchor="start" fill="#333">계절별 색감 구분</text>
        
        <circle cx="0" cy="50" r="5" fill="#FF4081"/>
        <text x="10" y="53" font-family="Arial" font-size="11" text-anchor="start" fill="#333">사진 공유 최적화</text>
      </g>
    </g>
    
    <!-- 스토리텔링 요소 -->
    <g transform="translate(130, 300)">
      <rect x="0" y="0" width="160" height="120" rx="10" ry="10" fill="white" stroke="#4CAF50" stroke-width="2"/>
      <rect x="10" y="10" width="140" height="30" rx="5" ry="5" fill="#4CAF50" opacity="0.1"/>
      <text x="80" y="30" font-family="Arial" font-size="14" font-weight="bold" text-anchor="middle" fill="#4CAF50">스토리텔링 요소</text>
      
      <g transform="translate(20, 50)">
        <circle cx="0" cy="10" r="5" fill="#4CAF50"/>
        <text x="10" y="13" font-family="Arial" font-size="11" text-anchor="start" fill="#333">특산물 생산자 이야기</text>
        
        <circle cx="0" cy="30" r="5" fill="#4CAF50"/>
        <text x="10" y="33" font-family="Arial" font-size="11" text-anchor="start" fill="#333">양평 역사 담은 패키지</text>
        
        <circle cx="0" cy="50" r="5" fill="#4CAF50"/>
        <text x="10" y="53" font-family="Arial" font-size="11" text-anchor="start" fill="#333">QR코드로 확장 정보</text>
      </g>
    </g>
    
    <!-- 환경 의식 반영 -->
    <g transform="translate(510, 160)">
      <rect x="0" y="0" width="160" height="120" rx="10" ry="10" fill="white" stroke="#009688" stroke-width="2"/>
      <rect x="10" y="10" width="140" height="30" rx="5" ry="5" fill="#009688" opacity="0.1"/>
      <text x="80" y="30" font-family="Arial" font-size="14" font-weight="bold" text-anchor="middle" fill="#009688">환경 의식 반영</text>
      
      <g transform="translate(20, 50)">
        <circle cx="0" cy="10" r="5" fill="#009688"/>
        <text x="10" y="13" font-family="Arial" font-size="11" text-anchor="start" fill="#333">생분해성 패키지</text>
        
        <circle cx="0" cy="30" r="5" fill="#009688"/>
        <text x="10" y="33" font-family="Arial" font-size="11" text-anchor="start" fill="#333">제로웨이스트 캠페인</text>
        
        <circle cx="0" cy="50" r="5" fill="#009688"/>
        <text x="10" y="53" font-family="Arial" font-size="11" text-anchor="start" fill="#333">친환경 가치 소통</text>
      </g>
    </g>
    
    <!-- 체험 및 상호작용 -->
    <g transform="translate(510, 300)">
      <rect x="0" y="0" width="160" height="120" rx="10" ry="10" fill="white" stroke="#3F51B5" stroke-width="2"/>
      <rect x="10" y="10" width="140" height="30" rx="5" ry="5" fill="#3F51B5" opacity="0.1"/>
      <text x="80" y="30" font-family="Arial" font-size="14" font-weight="bold" text-anchor="middle" fill="#3F51B5">체험 및 상호작용</text>
      
      <g transform="translate(20, 50)">
        <circle cx="0" cy="10" r="5" fill="#3F51B5"/>
        <text x="10" y="13" font-family="Arial" font-size="11" text-anchor="start" fill="#333">DIY 간식 체험 키트</text>
        
        <circle cx="0" cy="30" r="5" fill="#3F51B5"/>
        <text x="10" y="33" font-family="Arial" font-size="11" text-anchor="start" fill="#333">AR 콘텐츠 연동</text>
        
        <circle cx="0" cy="50" r="5" fill="#3F51B5"/>
        <text x="10" y="53" font-family="Arial" font-size="11" text-anchor="start" fill="#333">SNS 참여형 이벤트</text>
      </g>
    </g>
  </g>
  
  <!-- 청년 선호 간식 인기도 차트 -->
  <g transform="translate(100, 450)">
    <rect x="0" y="0" width="600" height="130" rx="10" ry="10" fill="white" stroke="#F06292" stroke-width="2"/>
    <text x="300" y="25" font-family="Arial" font-size="16" font-weight="bold" text-anchor="middle" fill="#F06292">청년층 선호 간식 인기도</text>
    
    <!-- 그래프 -->
    <g transform="translate(40, 50)">
      <!-- 눈금 -->
      <line x1="0" y1="0" x2="0" y2="50" stroke="#ccc" stroke-width="1"/>
      <line x1="0" y1="50" x2="500" y2="50" stroke="#ccc" stroke-width="1"/>
      
      <!-- 데이터 포인트 -->
      <g>
        <!-- 와플 -->
        <rect x="10" y="10" width="60" height="40" fill="#FFB74D"/>
        <text x="40" y="65" font-family="Arial" font-size="10" text-anchor="middle" fill="#333">와플</text>
        <text x="40" y="5" font-family="Arial" font-size="10" text-anchor="middle" fill="#333">82%</text>
        
        <!-- 츄러스 -->
        <rect x="80" y="5" width="60" height="45" fill="#4FC3F7"/>
        <text x="110" y="65" font-family="Arial" font-size="10" text-anchor="middle" fill="#333">츄러스</text>
        <text x="110" y="0" font-family="Arial" font-size="10" text-anchor="middle" fill="#333">90%</text>
        
        <!-- 마카롱 -->
        <rect x="150" y="20" width="60" height="30" fill="#AED581"/>
        <text x="180" y="65" font-family="Arial" font-size="10" text-anchor="middle" fill="#333">마카롱</text>
        <text x="180" y="15" font-family="Arial" font-size="10" text-anchor="middle" fill="#333">73%</text>
        
        <!-- 타피오카 -->
        <rect x="220" y="15" width="60" height="35" fill="#9575CD"/>
        <text x="250" y="65" font-family="Arial" font-size="10" text-anchor="middle" fill="#333">타피오카</text>
        <text x="250" y="10" font-family="Arial" font-size="10" text-anchor="middle" fill="#333">78%</text>
        
        <!-- 수제떡 -->
        <rect x="290" y="20" width="60" height="30" fill="#4DB6AC"/>
        <text x="320" y="65" font-family="Arial" font-size="10" text-anchor="middle" fill="#333">수제떡</text>
        <text x="320" y="15" font-family="Arial" font-size="10" text-anchor="middle" fill="#333">72%</text>
        
        <!-- 계절애 -->
        <rect x="360" y="15" width="60" height="35" fill="#F06292"/>
        <text x="390" y="65" font-family="Arial" font-size="10" text-anchor="middle" fill="#F06292">계절애</text>
        <text x="390" y="10" font-family="Arial" font-size="10" text-anchor="middle" fill="#F06292">81%</text>
        <text x="390" y="75" font-family="Arial" font-size="9" font-style="italic" text-anchor="middle" fill="#F06292">(예상)</text>
      </g>
    </g>
  </g>
  
   
  
  <!-- 장식용 요소 -->
  <g transform="translate(0, 0)">
    <!-- 상단 좌측 장식 -->
    <circle cx="50" cy="50" r="30" fill="#FCE4EC" opacity="0.6"/>
    <circle cx="30" cy="70" r="20" fill="#F8BBD0" opacity="0.6"/>
    
    <!-- 상단 우측 장식 -->
    <circle cx="750" cy="50" r="30" fill="#FCE4EC" opacity="0.6"/>
    <circle cx="770" cy="70" r="20" fill="#F8BBD0" opacity="0.6"/>
    
   
  
  </g>
  
  <!-- 그래디언트 정의 -->
  <defs>
    <linearGradient id="instagram-gradient" x1="0%" y1="0%" x2="100%" y2="100%">
      <stop offset="0%" style="stop-color:#833AB4"/>
      <stop offset="50%" style="stop-color:#FD1D1D"/>
      <stop offset="100%" style="stop-color:#FCAF45"/>
    </linearGradient>
  </defs>
</svg>